<?xml version="1.0" encoding="UTF-8" ?>
<!DOCTYPE svg PUBLIC "-//W3C//DTD SVG 1.1//EN" "http://www.w3.org/Graphics/SVG/1.1/DTD/svg11.dtd">
<svg width="200px" height="200px" viewBox="0 0 1088 1088" version="1.1" xmlns="http://www.w3.org/2000/svg">
<g id="#ffffffff">
<path fill="#ffffff" opacity="1.00" d=" M 426.26 87.47 C 431.70 86.57 436.74 89.17 440.41 93.03 C 440.94 99.06 440.12 105.16 440.88 111.18 C 441.54 115.42 441.16 119.72 441.25 123.99 C 441.17 142.40 442.15 160.88 440.37 179.22 C 437.83 183.46 433.13 186.90 428.01 186.47 C 422.47 186.77 417.59 182.87 414.51 178.56 C 414.32 150.22 414.38 121.85 414.48 93.51 C 417.40 90.04 421.47 87.03 426.26 87.47 Z" />
<path fill="#ffffff" opacity="1.00" d=" M 250.13 172.73 C 246.60 164.24 254.19 154.58 263.00 154.47 C 267.91 154.03 272.31 157.05 275.64 160.36 C 280.37 165.27 285.77 169.48 290.48 174.43 C 302.30 186.31 314.29 198.02 325.53 210.45 C 328.37 213.58 327.44 218.08 327.60 221.93 C 328.18 227.35 323.25 231.20 318.85 233.27 C 316.16 233.66 313.43 233.33 310.72 233.48 C 302.21 227.00 295.27 218.80 287.19 211.82 C 280.83 205.52 274.17 199.48 268.36 192.64 C 262.34 185.96 255.35 180.10 250.13 172.73 Z" />
<path fill="#ffffff" opacity="1.00" d=" M 579.41 161.42 C 583.08 157.88 587.47 153.55 593.04 154.51 C 598.70 155.46 604.31 159.47 605.50 165.37 C 605.67 168.02 605.54 170.69 605.48 173.35 C 599.69 180.25 593.37 186.65 587.50 193.48 C 579.74 201.40 571.83 209.17 564.02 217.02 C 557.93 222.87 552.37 229.71 544.60 233.39 C 541.93 233.47 539.25 233.59 536.59 233.35 C 532.70 231.85 528.93 229.12 527.61 225.01 C 527.22 221.67 527.32 218.29 527.49 214.94 C 530.01 210.20 534.23 206.71 537.90 202.90 C 542.50 198.15 547.53 193.81 551.62 188.60 C 555.76 183.73 561.23 180.19 565.20 175.15 C 569.39 170.01 575.01 166.36 579.41 161.42 Z" />
<path fill="#ffffff" opacity="1.00" d=" M 407.35 218.16 C 419.16 216.41 431.13 218.69 443.01 218.35 C 458.76 218.44 473.26 225.56 486.78 232.96 C 493.79 237.06 501.22 241.42 505.37 248.68 C 507.15 251.50 506.47 254.94 506.58 258.08 C 506.89 262.66 502.60 265.89 499.13 268.11 C 495.80 269.20 492.07 268.78 488.64 268.35 C 480.65 264.49 474.26 257.95 466.07 254.44 C 459.92 251.21 453.20 249.45 446.54 247.66 C 441.91 247.33 437.52 245.44 432.85 245.57 C 425.59 245.75 418.18 244.81 411.14 247.01 C 396.48 249.88 382.59 256.49 371.42 266.43 C 365.93 271.88 360.10 277.12 356.01 283.77 C 348.54 294.20 344.39 306.55 341.70 318.98 C 341.73 325.64 339.35 332.22 340.97 338.88 C 341.95 342.19 341.19 345.72 342.22 349.03 C 346.21 366.66 355.95 382.65 368.47 395.53 C 375.19 402.59 385.31 406.19 390.23 414.93 C 394.03 421.79 389.13 429.97 382.93 433.46 C 379.45 433.82 375.86 433.96 372.42 433.27 C 366.14 430.83 360.76 426.70 355.60 422.47 C 331.71 404.18 316.43 375.75 312.53 346.10 C 312.48 336.69 312.27 327.26 312.65 317.86 C 313.40 315.25 313.53 312.54 313.73 309.86 C 317.24 294.46 323.75 279.79 332.26 266.52 C 335.79 260.80 340.73 256.17 345.21 251.21 C 351.35 245.55 357.36 239.64 364.61 235.36 C 377.49 226.72 392.28 221.47 407.35 218.16 Z" />
<path fill="#ffffff" opacity="1.00" d=" M 578.70 262.28 C 590.61 259.42 602.97 260.35 615.10 260.67 C 619.74 261.36 624.36 262.20 629.03 262.66 C 673.44 270.98 712.38 301.80 732.48 342.01 C 735.56 349.27 738.69 356.53 740.93 364.10 C 744.09 366.51 747.92 364.35 751.34 363.77 C 762.54 362.06 773.89 360.59 785.25 361.70 C 789.42 362.97 793.86 361.95 798.02 363.30 C 810.55 365.64 822.78 369.63 834.25 375.19 C 850.32 383.41 864.69 394.95 876.18 408.86 C 886.34 419.81 892.87 433.49 898.43 447.20 C 901.23 454.01 902.60 461.25 904.32 468.37 C 904.84 472.06 904.27 475.83 905.14 479.48 C 906.97 488.88 906.17 498.55 904.70 507.94 C 905.00 514.41 902.98 520.55 901.57 526.78 C 893.67 555.70 874.64 580.95 850.34 598.20 C 835.29 609.24 817.58 615.98 799.63 620.58 C 794.87 621.97 789.87 621.10 785.00 621.33 C 681.00 621.33 577.00 621.33 473.00 621.33 C 469.36 621.29 465.66 621.68 462.13 620.56 C 443.57 620.05 425.80 612.55 410.78 601.94 C 406.68 599.21 403.57 595.32 399.77 592.23 C 392.29 584.64 385.58 576.16 381.16 566.39 C 376.33 557.14 372.83 547.18 370.64 536.99 C 370.59 526.67 370.44 516.34 370.77 506.03 C 372.14 501.39 372.42 496.52 373.81 491.89 C 379.71 470.67 394.11 452.58 411.46 439.41 C 420.10 432.32 430.30 427.31 440.89 423.84 C 445.94 422.48 451.11 421.60 456.14 420.13 C 456.46 419.62 457.09 418.59 457.41 418.08 C 457.67 410.94 457.06 403.74 457.84 396.63 C 459.16 392.08 457.69 387.20 459.27 382.73 C 459.96 379.75 458.99 376.55 460.26 373.66 C 462.19 366.34 463.63 358.87 466.62 351.88 C 473.33 336.73 481.44 321.94 492.85 309.78 C 498.40 303.10 505.03 297.44 511.56 291.74 C 517.04 287.04 523.61 283.85 529.10 279.18 C 528.86 279.59 528.39 280.41 528.15 280.82 C 536.24 274.77 545.93 271.34 555.28 267.72 C 562.95 265.43 570.60 262.47 578.70 262.28 M 546.15 303.35 C 539.38 307.47 532.66 311.74 526.51 316.75 C 519.12 323.52 511.89 330.59 506.44 339.06 C 496.91 353.62 489.15 369.93 487.31 387.41 C 485.75 394.15 486.77 401.15 486.48 408.00 C 486.09 414.63 487.50 421.11 488.09 427.66 C 489.74 431.66 488.85 436.04 490.33 440.07 C 490.60 442.46 490.16 445.03 491.65 447.13 C 490.12 447.68 488.68 448.64 486.99 448.50 C 475.26 448.78 463.31 447.82 451.90 451.12 C 445.25 453.13 438.89 455.99 432.91 459.54 C 422.80 465.92 414.78 475.03 408.14 484.87 C 404.83 490.96 402.78 497.60 400.58 504.15 C 400.24 506.20 400.71 508.39 399.86 510.36 C 398.16 514.71 398.60 519.44 398.63 524.00 C 398.54 527.88 401.11 531.33 400.37 535.25 C 402.08 539.94 403.21 544.84 405.29 549.41 C 411.94 565.04 424.28 578.15 439.63 585.49 C 447.20 589.75 455.87 591.30 464.34 592.54 C 473.24 592.62 482.15 592.90 491.05 592.63 C 542.03 592.66 593.02 592.63 644.00 592.64 C 687.66 592.53 731.33 593.05 775.00 592.34 C 778.76 592.50 782.41 591.15 786.20 591.53 C 790.00 591.98 793.59 590.30 797.38 590.45 C 801.38 590.54 805.20 589.10 808.94 587.87 C 822.27 581.65 835.87 574.95 846.05 564.04 C 861.78 549.53 872.28 529.65 876.23 508.69 C 876.40 501.44 878.03 494.21 876.75 486.99 C 876.48 476.33 874.34 465.76 870.80 455.72 C 865.23 442.73 857.92 430.21 847.51 420.48 C 838.38 410.72 826.77 403.60 814.63 398.20 C 804.90 394.22 794.59 391.27 784.00 391.50 C 771.62 391.75 758.85 390.34 746.94 394.48 C 741.75 396.43 736.44 398.03 731.29 400.06 C 727.78 401.28 724.25 402.66 720.50 402.77 C 719.21 399.20 717.92 395.60 717.41 391.83 C 715.70 381.98 713.00 372.31 709.65 362.89 C 703.06 344.04 689.63 328.46 674.75 315.53 C 655.36 298.39 629.54 289.98 604.00 288.59 C 583.89 288.85 564.05 294.22 546.15 303.35 Z" />
<path fill="#ffffff" opacity="1.00" d=" M 193.26 318.83 C 196.81 318.24 200.42 318.38 204.00 318.38 C 226.71 318.39 249.42 318.37 272.14 318.39 C 273.63 318.15 274.52 319.67 275.56 320.47 C 277.89 322.73 280.10 325.22 281.29 328.29 C 281.84 331.16 281.76 334.13 281.46 337.03 C 279.34 342.38 274.01 345.62 268.42 346.22 C 256.96 346.89 245.47 346.60 234.00 346.67 C 222.42 346.61 210.83 346.87 199.26 346.32 C 194.13 345.38 187.88 346.01 184.37 341.32 C 182.15 336.85 180.79 331.29 183.05 326.53 C 184.34 322.01 188.56 318.78 193.26 318.83 Z" />
<path fill="#ffffff" opacity="1.00" d=" M 309.67 432.21 C 314.62 428.63 321.05 431.32 324.63 435.52 C 328.93 439.35 327.83 445.71 327.39 450.81 C 325.26 455.00 321.66 458.10 318.56 461.54 C 313.40 468.01 307.20 473.52 301.45 479.45 C 296.53 484.19 291.98 489.34 286.67 493.66 C 281.48 498.04 277.10 503.31 271.64 507.38 C 267.75 510.71 262.31 509.29 257.65 509.31 C 251.72 506.34 247.64 499.11 249.86 492.56 C 251.70 489.57 253.83 486.77 256.08 484.09 C 269.90 469.91 283.90 455.91 298.00 442.00 C 301.78 438.61 304.92 434.32 309.67 432.21 Z" />
<path fill="#ffffff" opacity="1.00" d=" M 770.17 651.39 C 772.88 650.12 775.91 650.26 778.84 650.13 L 778.83 650.45 C 777.03 651.03 774.31 649.94 773.15 651.64 C 781.94 649.72 791.54 658.00 790.30 667.08 C 790.03 670.93 786.99 673.81 784.62 676.60 C 779.81 682.74 773.88 687.87 768.48 693.48 C 762.93 698.84 757.83 705.11 750.61 708.29 C 747.04 709.17 743.65 707.32 740.12 707.14 C 735.35 703.61 731.84 697.99 732.57 691.88 C 734.97 687.10 738.89 683.36 742.33 679.35 C 750.83 670.78 758.60 661.40 768.27 654.06 C 769.71 653.05 771.34 652.38 772.88 651.54 C 772.21 651.50 770.85 651.43 770.17 651.39 Z" />
<path fill="#ffffff" opacity="1.00" d=" M 495.23 651.95 C 500.16 650.60 506.13 651.28 509.66 655.37 C 514.36 659.03 514.12 665.54 513.14 670.81 C 510.71 675.31 506.38 678.27 503.15 682.13 C 499.07 687.30 493.90 691.45 489.31 696.15 C 484.40 700.46 480.17 705.82 474.00 708.42 C 468.22 709.13 462.01 706.14 458.85 701.26 C 455.85 697.12 458.30 691.87 457.39 687.26 C 457.63 687.56 458.10 688.17 458.34 688.47 C 463.53 680.46 470.89 674.27 477.45 667.46 C 483.09 662.00 488.41 655.95 495.23 651.95 Z" />
<path fill="#ffffff" opacity="1.00" d=" M 626.48 709.68 C 629.09 709.35 631.73 709.56 634.36 709.53 C 636.71 710.89 639.33 711.98 641.10 714.14 C 644.76 718.06 643.91 723.99 643.36 728.87 C 639.22 735.39 633.43 740.58 628.05 746.05 C 622.42 751.46 617.23 757.35 611.22 762.35 C 606.65 766.46 599.69 766.08 594.39 763.80 C 591.36 761.86 588.08 758.94 588.39 755.00 C 588.39 751.76 587.96 748.21 589.79 745.35 C 591.33 742.23 594.04 739.97 596.36 737.46 C 601.56 731.56 606.95 725.78 612.97 720.70 C 617.40 716.95 620.94 711.94 626.48 709.68 Z" />
<path fill="#ffffff" opacity="1.00" d=" M 215.87 812.82 C 220.51 811.82 225.29 812.22 230.00 812.14 C 240.19 812.21 250.38 812.00 260.56 812.26 C 260.79 818.22 260.74 824.19 260.58 830.16 C 248.44 830.36 236.29 830.15 224.15 830.26 C 220.38 830.40 216.91 832.79 215.13 836.09 C 212.37 840.89 212.51 846.63 212.55 852.00 C 212.61 862.33 212.45 872.68 212.62 883.01 C 212.69 888.63 217.28 893.81 223.04 893.82 C 235.53 893.95 248.04 893.75 260.53 893.91 C 260.79 899.88 260.77 905.86 260.55 911.83 C 248.35 912.06 236.14 911.88 223.94 911.93 C 215.35 912.07 206.36 908.97 200.62 902.39 C 195.56 896.51 191.90 888.94 192.37 881.03 C 192.40 868.36 192.36 855.69 192.39 843.03 C 192.49 836.40 193.87 829.42 198.17 824.18 C 202.52 818.49 208.90 814.42 215.87 812.82 Z" />
<path fill="#ffffff" opacity="1.00" d=" M 272.72 812.24 C 278.27 812.21 283.87 811.84 289.41 812.40 C 289.69 845.46 289.62 878.55 289.44 911.60 C 283.92 912.34 278.28 911.80 272.72 911.84 C 272.50 878.65 272.50 845.43 272.72 812.24 Z" />
<path fill="#ffffff" opacity="1.00" d=" M 301.58 812.41 C 307.12 811.83 312.73 812.22 318.29 812.24 C 318.51 817.85 318.52 823.48 318.28 829.09 C 312.71 829.19 307.15 829.19 301.58 829.09 C 301.39 823.53 301.29 817.95 301.58 812.41 Z" />
<path fill="#ffffff" opacity="1.00" d=" M 543.65 819.53 C 544.90 814.90 549.68 812.82 554.09 812.55 C 560.77 812.00 567.73 811.67 574.22 813.64 C 578.12 814.70 579.83 818.71 580.79 822.27 C 589.87 852.15 599.31 881.94 608.24 911.87 C 601.36 911.69 594.29 912.51 587.53 911.49 C 584.43 902.98 582.45 894.08 579.28 885.60 C 576.23 884.98 573.08 885.39 570.00 885.29 C 561.31 885.40 552.61 885.07 543.93 885.47 C 540.93 894.14 538.76 903.10 535.52 911.67 C 528.69 912.23 521.78 911.89 514.93 911.81 C 524.40 881.02 534.00 850.27 543.65 819.53 M 558.56 837.41 C 555.80 846.99 552.48 856.41 549.99 866.06 C 557.74 866.29 565.51 866.22 573.27 866.09 C 571.30 858.46 568.73 851.01 566.50 843.46 C 564.98 838.89 563.98 834.13 561.98 829.74 C 559.82 831.72 559.49 834.78 558.56 837.41 Z" />
<path fill="#ffffff" opacity="1.00" d=" M 301.53 839.52 C 307.12 839.30 312.71 839.34 318.29 839.50 C 318.52 863.61 318.53 887.74 318.29 911.85 C 312.72 911.80 307.08 912.33 301.56 911.61 C 301.34 887.59 301.39 863.55 301.53 839.52 Z" />
<path fill="#ffffff" opacity="1.00" d=" M 330.32 848.17 C 330.09 843.49 334.47 839.32 339.07 839.42 C 348.68 839.38 358.30 839.38 367.91 839.42 C 373.39 839.39 377.84 843.10 381.45 846.82 C 384.30 843.73 387.52 840.64 391.83 839.87 C 397.17 839.09 402.60 839.42 407.98 839.46 C 420.72 839.73 433.10 850.79 432.71 863.93 C 432.60 879.90 432.90 895.87 432.56 911.83 C 426.99 911.99 421.41 912.01 415.84 911.80 C 415.59 897.87 415.79 883.93 415.74 869.99 C 415.62 866.34 416.37 862.20 413.90 859.12 C 411.73 855.94 407.78 854.66 404.07 854.91 C 400.16 855.17 395.78 854.01 392.32 856.37 C 390.36 857.52 389.28 859.80 389.34 862.06 C 389.19 878.64 389.48 895.24 389.19 911.83 C 383.61 911.99 378.02 912.00 372.45 911.83 C 372.12 895.53 372.41 879.23 372.30 862.93 C 372.57 858.51 368.16 855.14 364.05 854.98 C 359.70 854.86 355.35 854.85 351.01 854.98 C 348.79 854.78 347.18 857.00 347.31 859.07 C 347.16 876.65 347.46 894.24 347.16 911.82 C 341.59 911.99 336.01 912.00 330.44 911.83 C 330.13 890.61 330.37 869.39 330.32 848.17 Z" />
<path fill="#ffffff" opacity="1.00" d=" M 446.51 839.59 C 457.66 839.13 468.84 839.53 480.00 839.39 C 485.61 839.46 491.87 838.69 496.68 842.27 C 503.98 847.24 506.18 856.68 506.25 865.01 C 506.21 880.61 506.39 896.22 506.16 911.82 C 489.42 912.06 472.68 911.90 455.95 911.90 C 451.78 912.08 448.43 908.98 446.53 905.55 C 441.66 896.61 441.68 885.33 446.30 876.30 C 448.50 872.25 452.25 868.36 457.14 868.19 C 465.42 867.93 473.71 868.27 481.99 868.04 C 484.88 868.03 487.93 866.54 489.06 863.76 C 490.02 860.52 487.58 856.18 483.93 856.43 C 471.42 856.31 458.91 856.59 446.41 856.29 C 446.33 850.73 446.07 845.13 446.51 839.59 M 463.21 895.59 C 471.86 895.81 480.52 895.77 489.17 895.58 C 489.34 891.94 489.31 888.30 489.20 884.67 C 480.17 884.49 471.12 884.40 462.10 884.69 C 456.95 886.15 457.87 895.16 463.21 895.59 Z" />
<path fill="#ffffff" opacity="1.00" d=" M 629.02 843.01 C 635.37 839.39 642.88 839.22 650.00 839.39 C 658.97 839.43 667.95 839.33 676.93 839.44 C 680.18 839.37 683.95 841.46 683.84 845.12 C 683.95 870.75 683.94 896.40 683.85 922.04 C 682.65 931.55 674.10 940.64 664.06 940.11 C 650.26 940.08 636.46 940.14 622.67 940.08 C 622.39 934.92 622.41 929.75 622.64 924.60 C 636.05 924.23 649.50 924.83 662.89 924.30 C 667.41 922.03 666.08 916.06 666.32 911.94 C 658.90 911.87 651.48 912.04 644.07 911.86 C 633.14 911.34 623.32 903.89 618.88 894.05 C 614.62 885.70 615.37 876.08 615.47 867.02 C 615.75 857.50 620.39 847.64 629.02 843.01 M 636.96 860.96 C 633.43 866.32 634.10 873.01 634.18 879.11 C 634.30 884.38 636.58 890.05 641.60 892.41 C 649.25 896.05 658.02 894.70 666.21 894.82 C 666.40 882.06 666.38 869.29 666.22 856.53 C 659.48 856.32 652.73 856.40 645.99 856.46 C 642.52 856.47 638.79 857.85 636.96 860.96 Z" />
<path fill="#ffffff" opacity="1.00" d=" M 710.40 839.59 C 717.92 839.15 725.46 839.51 732.99 839.40 C 738.41 839.54 744.09 838.73 749.23 840.92 C 757.01 843.78 762.64 851.69 762.52 860.02 C 762.45 870.09 762.80 880.18 762.28 890.24 C 761.76 897.49 759.49 905.91 752.40 909.37 C 743.84 913.34 734.11 911.48 724.99 911.93 C 716.86 911.48 707.64 913.63 700.61 908.37 C 694.09 903.83 691.83 895.55 691.68 887.99 C 691.54 878.31 691.48 868.63 691.70 858.96 C 692.21 849.05 700.52 840.44 710.40 839.59 M 715.44 856.69 C 712.13 857.14 708.37 859.34 708.31 863.06 C 708.19 870.71 708.25 878.38 708.29 886.04 C 708.09 889.60 710.73 892.73 713.97 893.92 C 717.80 895.37 721.99 894.81 726.00 894.93 C 730.79 894.76 735.91 895.58 740.37 893.37 C 742.84 892.16 745.32 889.99 745.36 887.02 C 745.54 879.67 745.38 872.30 745.44 864.94 C 745.58 862.71 744.92 860.29 742.96 859.02 C 738.98 856.00 733.72 856.42 729.02 856.41 C 724.49 856.53 719.94 856.13 715.44 856.69 Z" />
<path fill="#ffffff" opacity="1.00" d=" M 772.05 856.93 C 772.36 847.61 780.75 839.38 790.10 839.41 C 796.88 839.48 803.68 839.15 810.45 839.59 C 810.90 845.13 810.63 850.73 810.56 856.30 C 806.06 856.53 801.56 856.35 797.07 856.41 C 793.44 856.01 790.25 859.56 790.35 863.06 C 790.23 879.31 790.50 895.57 790.22 911.83 C 784.22 912.00 778.22 911.97 772.23 911.85 C 771.40 902.25 772.43 892.61 771.93 883.00 C 771.97 874.31 771.75 865.61 772.05 856.93 Z" />
<path fill="#ffffff" opacity="1.00" d=" M 820.60 839.60 C 834.04 839.13 847.53 839.51 860.99 839.41 C 866.62 839.23 872.12 842.10 875.31 846.72 C 879.54 852.54 880.43 860.01 880.37 867.02 C 880.28 881.95 880.53 896.90 880.24 911.84 C 863.80 912.05 847.36 911.88 830.92 911.93 C 827.77 912.12 824.61 910.85 822.64 908.37 C 818.63 903.56 817.17 897.12 816.91 891.01 C 817.19 884.16 818.75 876.78 823.76 871.77 C 825.89 869.50 828.89 868.08 832.03 868.14 C 839.71 868.02 847.39 868.18 855.08 868.09 C 857.71 868.09 860.60 867.44 862.28 865.24 C 864.98 862.04 862.21 856.05 857.93 856.43 C 845.46 856.31 832.98 856.59 820.52 856.29 C 820.42 850.73 820.20 845.15 820.60 839.60 M 834.64 885.49 C 830.96 888.47 833.02 895.87 838.06 895.66 C 846.45 895.73 854.85 895.79 863.25 895.60 C 863.42 891.95 863.40 888.30 863.28 884.67 C 855.50 884.39 847.73 884.62 839.96 884.52 C 838.17 884.64 836.09 884.17 834.64 885.49 Z" />
</g>
</svg>
